<svg width="40" height="40" viewBox="0 0 40 40" fill="none" xmlns="http://www.w3.org/2000/svg">
<circle cx="20" cy="20" r="20" fill="#121212"/>
<circle cx="20" cy="20" r="20" fill="white" fill-opacity="0.16"/>
<path d="M28.1712 18.3679H27.5V18.3333H20V21.6667H24.7095C24.0225 23.6071 22.1762 25 20 25C17.2387 25 15 22.7612 15 20C15 17.2387 17.2387 15 20 15C21.2745 15 22.4341 15.4808 23.317 16.2662L25.6741 13.9092C24.1858 12.5221 22.195 11.6667 20 11.6667C15.3979 11.6667 11.6666 15.3979 11.6666 20C11.6666 24.6021 15.3979 28.3333 20 28.3333C24.602 28.3333 28.3333 24.6021 28.3333 20C28.3333 19.4412 28.2758 18.8958 28.1712 18.3679Z" fill="white"/>
<path d="M12.6274 16.1212L15.3654 18.1292C16.1062 16.295 17.9004 15 19.9999 15C21.2745 15 22.4341 15.4808 23.317 16.2662L25.6741 13.9092C24.1858 12.5221 22.1949 11.6667 19.9999 11.6667C16.7991 11.6667 14.0233 13.4737 12.6274 16.1212Z" fill="white"/>
<path d="M19.9999 28.3333C22.1524 28.3333 24.1083 27.5096 25.587 26.17L23.0078 23.9875C22.1431 24.6452 21.0864 25.0009 19.9999 25C17.8324 25 15.992 23.6179 15.2987 21.6892L12.5812 23.7829C13.9603 26.4817 16.7612 28.3333 19.9999 28.3333Z" fill="white"/>
<path d="M28.1713 18.3679H27.5V18.3333H20V21.6667H24.7096C24.3809 22.5902 23.7889 23.3972 23.0067 23.9879L23.0079 23.9871L25.5871 26.1696C25.4046 26.3354 28.3333 24.1667 28.3333 20C28.3333 19.4413 28.2758 18.8958 28.1713 18.3679Z" fill="white"/>
</svg>
