<svg width="30" height="29" viewBox="0 0 30 29" fill="none" xmlns="http://www.w3.org/2000/svg">
<path d="M29.0253 25.5676L28.7042 25.2843C27.7932 24.4726 26.9958 23.5418 26.3336 22.517C25.6104 21.1028 25.1769 19.5583 25.0586 17.9743V13.3087C25.0548 12.742 25.0043 12.1766 24.9075 11.6181C23.3077 11.2893 21.8707 10.4178 20.8398 9.15105C19.8089 7.88432 19.2473 6.30026 19.2503 4.66704V4.07204C18.2642 3.58677 17.2048 3.26766 16.1147 3.12759V1.93759C16.1147 1.6032 15.9819 1.2825 15.7455 1.04605C15.509 0.809595 15.1883 0.676758 14.8539 0.676758C14.5195 0.676758 14.1988 0.809595 13.9624 1.04605C13.7259 1.2825 13.5931 1.6032 13.5931 1.93759V3.17481C11.1524 3.51911 8.91862 4.73479 7.30423 6.59742C5.68985 8.46004 4.80382 10.8438 4.80975 13.3087V17.9743C4.69146 19.5583 4.25798 21.1028 3.53475 22.517C2.88391 23.5393 2.09938 24.4699 1.20197 25.2843L0.880859 25.5676V28.2309H29.0253V25.5676Z" fill="white"/>
</svg>
