<svg width="350" height="24" viewBox="0 0 350 24" fill="none" xmlns="http://www.w3.org/2000/svg">
<path d="M167.704 12.128C167.704 14.544 169.56 16.224 171.88 16.224C174.2 16.224 176.056 14.544 176.056 12.128C176.056 9.712 174.2 8.096 171.88 8.096C169.56 8.096 167.704 9.712 167.704 12.128ZM169.656 12.128C169.656 10.928 170.36 9.664 171.88 9.664C173.4 9.664 174.104 10.928 174.104 12.128C174.104 13.328 173.4 14.624 171.88 14.624C170.36 14.624 169.656 13.328 169.656 12.128ZM178.418 16H180.338V11.888C180.338 11.328 180.674 9.824 182.402 9.824C182.578 9.824 182.738 9.84 182.994 9.904V8.144C182.866 8.112 182.674 8.096 182.53 8.096C181.522 8.096 180.706 8.72 180.29 9.6H180.258V8.32H178.418V16Z" fill="white"/>
<line x1="190" y1="11.5" x2="350" y2="11.5" stroke="#B4B8CC"/>
<line x1="4.37114e-08" y1="11.5" x2="160" y2="11.5" stroke="#B4B8CC"/>
</svg>
