<svg width="91" height="68" viewBox="0 0 91 68" fill="none" xmlns="http://www.w3.org/2000/svg">
<path d="M61.4775 24.6872L68.1467 28.548C70.8746 30.1281 74.2856 28.153 74.2856 24.9949V17.2753C74.2856 14.1151 70.8746 12.1421 68.1467 13.7222L61.4775 17.5809C58.7455 19.1589 58.7455 23.1071 61.4775 24.6872Z" fill="#F2D2B6"/>
<path d="M30.7149 35.6187C38.4468 35.6187 44.7157 29.3357 44.7157 21.585C44.7157 13.8342 38.4468 7.55127 30.7149 7.55127C22.983 7.55127 16.7141 13.8342 16.7141 21.585C16.7141 29.3357 22.983 35.6187 30.7149 35.6187Z" fill="#F2D2B6"/>
<path d="M43.6427 35.6186C51.3354 35.6186 57.5712 29.3669 57.5712 21.6577C57.5712 13.9485 51.3354 7.69678 43.6427 7.69678C35.95 7.69678 29.7141 13.9464 29.7141 21.6577C29.7141 29.369 35.95 35.6186 43.6427 35.6186Z" fill="#BD220B"/>
<path d="M44.7157 21.5849C44.7157 26.9947 41.6617 31.6892 37.1881 34.0302C32.7454 31.6996 29.7141 27.0321 29.7141 21.6577C29.7141 16.2272 32.8073 11.5202 37.3243 9.2124C41.7236 11.5763 44.7157 16.2313 44.7157 21.5849Z" fill="#F2D2B6" fill-opacity="0.75"/>
<path d="M18.9965 49.2988C18.9965 51.5567 17.8203 53.2719 15.8786 54.0204C15.8476 54.0329 15.8332 54.0703 15.8518 54.0994L18.8356 59.1806C19.1678 59.7565 18.9264 60.1703 18.2764 60.1703H15.9673C15.5216 60.1703 15.2245 59.9852 14.9954 59.5944L12.1416 54.5776C12.1313 54.561 12.1127 54.5506 12.0941 54.5506H11.2316C11.2006 54.5506 11.1759 54.5755 11.1759 54.6067V59.2867C11.1759 59.7753 10.7818 60.1724 10.2968 60.1724H8.3035C7.81858 60.1724 7.42651 59.7773 7.42651 59.2888V44.9349C7.42651 44.4463 7.81858 44.0513 8.3035 44.0513H13.3467C16.6978 44.0471 18.9965 46.1678 18.9965 49.2988ZM11.1779 51.6274C11.1779 51.6586 11.2027 51.6835 11.2337 51.6835H12.9608C14.4011 51.6835 15.2471 50.75 15.2471 49.3924C15.2471 48.0098 14.4011 47.0888 12.9608 47.0888H11.2337C11.2027 47.0888 11.1779 47.1137 11.1779 47.1449V51.6274Z" fill="white"/>
<path d="M26.7821 57.6605C28.0511 57.6605 29.0684 57.3486 29.9826 56.7041C30.418 56.4048 30.7935 56.4172 31.136 56.8081L31.6272 57.3611C31.9697 57.752 31.9924 58.1678 31.6045 58.5358C30.3932 59.6751 28.8373 60.4485 26.7346 60.4485C22.6427 60.4485 19.9106 57.7083 19.9106 54.2072C19.9106 50.706 22.7108 47.9658 26.4024 47.9658C30.0259 47.9658 32.6672 50.6603 32.6672 54.0117C32.6672 54.1614 32.6548 54.334 32.6321 54.4962C32.5867 54.991 32.2441 55.2342 31.751 55.2342H23.6579C23.6229 55.2342 23.596 55.2675 23.6022 55.3028C23.8911 56.7665 25.0467 57.6605 26.7821 57.6605ZM23.724 52.8932H28.86C28.8951 52.8932 28.924 52.8579 28.9137 52.8225C28.6103 51.5501 27.6941 50.7497 26.357 50.7497C25.0446 50.7497 24.0397 51.5273 23.6683 52.8184C23.66 52.8558 23.6868 52.8932 23.724 52.8932Z" fill="white"/>
<path d="M43.7439 48.9661L45.2462 55.4736C45.2586 55.5297 45.339 55.5318 45.3535 55.4736L46.8763 48.9661C46.9898 48.4713 47.287 48.2405 47.7801 48.2405H49.8024C50.3966 48.2405 50.6711 48.5981 50.4998 49.174L47.5057 59.482C47.3674 59.9539 47.06 60.1722 46.5792 60.1722H44.2474C43.7563 60.1722 43.4468 59.9311 43.3333 59.4591L41.8208 53.4194C41.8063 53.3633 41.7279 53.3633 41.7135 53.4194L40.2009 59.4591C40.0874 59.9311 39.7779 60.1722 39.2868 60.1722H36.9551C36.4743 60.1722 36.1668 59.9539 36.0286 59.482L33.0344 49.174C32.8632 48.5981 33.1376 48.2405 33.7319 48.2405H35.7562C36.2473 48.2405 36.5444 48.4713 36.66 48.9661L38.1828 55.4736C38.1952 55.5297 38.2778 55.5297 38.2901 55.4736L39.7924 48.9661C39.9059 48.4713 40.2154 48.2405 40.7065 48.2405H42.8319C43.323 48.2405 43.6305 48.4713 43.7439 48.9661Z" fill="white"/>
<path d="M53.7025 43.103C54.8911 43.103 55.8052 43.9783 55.8052 45.1176C55.8052 46.2694 54.8911 47.1323 53.7025 47.1323C52.514 47.1323 51.5999 46.2694 51.5999 45.1176C51.5999 43.9783 52.514 43.103 53.7025 43.103ZM52.741 48.2404H54.6538C55.1387 48.2404 55.5329 48.6375 55.5329 49.1261V59.2886C55.5329 59.7771 55.1387 60.1742 54.6538 60.1742H52.741C52.256 60.1742 51.8619 59.7771 51.8619 59.2886V49.1261C51.8619 48.6354 52.256 48.2404 52.741 48.2404Z" fill="white"/>
<path d="M69.2941 52.6853V59.2863C69.2941 59.7749 68.8999 60.172 68.415 60.172H66.5022C66.0172 60.172 65.6231 59.7749 65.6231 59.2863V53.3215C65.6231 51.7331 64.3768 50.783 62.9075 51.3589C62.1069 51.6728 61.5312 52.4774 61.5312 53.7207V59.2863C61.5312 59.7749 61.1371 60.172 60.6521 60.172H58.7393C58.2544 60.172 57.8623 59.777 57.8623 59.2884V49.1259C57.8623 48.6374 58.2544 48.2423 58.7393 48.2423H60.6521C61.1371 48.2423 61.5291 48.6374 61.5291 49.1259V49.3484C61.5291 49.4004 61.591 49.4212 61.6241 49.3837C62.4185 48.4752 63.5142 47.9658 64.8101 47.9658C67.408 47.9637 69.2941 49.864 69.2941 52.6853Z" fill="white"/>
<path d="M76.1985 47.9639C77.7008 47.9639 78.9492 48.5232 79.8654 49.4567C79.9004 49.492 79.9582 49.4691 79.9582 49.4192V43.9887C79.9582 43.5001 80.3523 43.103 80.8373 43.103H82.6923C83.1773 43.103 83.5714 43.5001 83.5714 43.9887V59.2865C83.5714 59.7751 83.1773 60.1722 82.6923 60.1722H80.8373C80.3523 60.1722 79.9603 59.7771 79.9603 59.2886V58.9954C79.9603 58.9455 79.9025 58.9226 79.8674 58.958C78.9492 59.8894 77.7028 60.4508 76.2006 60.4508C72.9424 60.4508 70.6333 57.7105 70.6333 54.2094C70.6333 50.7082 72.9403 47.9639 76.1985 47.9639ZM77.1023 57.1991C78.7016 57.1991 79.9603 55.9101 79.9603 54.2052C79.9603 52.5129 78.7036 51.2114 77.1023 51.2114C75.5135 51.2114 74.2795 52.5129 74.2795 54.2052C74.2774 55.9101 75.5135 57.1991 77.1023 57.1991Z" fill="white"/>
</svg>
