<svg width="27" height="26" viewBox="0 0 27 26" fill="none" xmlns="http://www.w3.org/2000/svg">
<path d="M26.9189 24.1311L18.154 15.6909C19.5142 13.9977 20.2499 11.9274 20.2499 9.74996C20.2499 7.14347 19.1935 4.69948 17.2833 2.85674C15.3731 1.014 12.8283 0 10.125 0C7.42159 0 4.87685 1.01725 2.96661 2.85674C1.053 4.69623 0 7.14347 0 9.74996C0 12.3532 1.05637 14.8037 2.96661 16.6432C4.87685 18.4859 7.41822 19.4999 10.125 19.4999C12.3862 19.4999 14.5327 18.7914 16.2911 17.4849L25.0559 25.9219C25.0816 25.9466 25.1121 25.9663 25.1457 25.9797C25.1793 25.9931 25.2153 26 25.2516 26C25.288 26 25.324 25.9931 25.3576 25.9797C25.3912 25.9663 25.4217 25.9466 25.4474 25.9219L26.9189 24.5081C26.9446 24.4834 26.965 24.454 26.9789 24.4217C26.9928 24.3893 27 24.3547 27 24.3196C27 24.2846 26.9928 24.25 26.9789 24.2176C26.965 24.1853 26.9446 24.1559 26.9189 24.1311ZM15.4709 14.8979C14.0399 16.2727 12.1432 17.0299 10.125 17.0299C8.10671 17.0299 6.20997 16.2727 4.77898 14.8979C3.35136 13.5199 2.56499 11.6934 2.56499 9.74996C2.56499 7.80647 3.35136 5.97672 4.77898 4.60198C6.20997 3.22724 8.10671 2.46999 10.125 2.46999C12.1432 2.46999 14.0433 3.22399 15.4709 4.60198C16.8986 5.97997 17.6849 7.80647 17.6849 9.74996C17.6849 11.6934 16.8986 13.5232 15.4709 14.8979Z" fill="white"/>
</svg>
