<svg width="40" height="40" viewBox="0 0 40 40" fill="none" xmlns="http://www.w3.org/2000/svg">
<circle cx="20" cy="20" r="20" fill="#121212"/>
<circle cx="20" cy="20" r="20" fill="white" fill-opacity="0.16"/>
<path d="M27.9442 15.4162C27.9569 15.61 27.9569 15.8039 27.9569 15.9977C27.9569 21.9091 23.8326 28.7204 16.2944 28.7204C13.9721 28.7204 11.8147 27.9866 10 26.713C10.33 26.7545 10.6472 26.7684 10.9898 26.7684C12.9061 26.7684 14.6701 26.0624 16.0787 24.8579C14.2767 24.8164 12.7665 23.5289 12.2462 21.7568C12.5 21.7983 12.7538 21.826 13.0203 21.826C13.3883 21.826 13.7564 21.7706 14.099 21.6738C12.2208 21.2584 10.8122 19.4587 10.8122 17.2852V17.2298C11.3578 17.5621 11.9924 17.7698 12.6649 17.7974C11.5609 16.9944 10.8375 15.6239 10.8375 14.0734C10.8375 13.2427 11.0406 12.4813 11.3959 11.8168C13.4137 14.5302 16.4467 16.3022 19.8477 16.4961C19.7843 16.1638 19.7462 15.8177 19.7462 15.4716C19.7462 13.0074 21.5736 11 23.8452 11C25.0254 11 26.0914 11.5399 26.8401 12.4121C27.7665 12.2183 28.6548 11.8445 29.4416 11.3323C29.137 12.3706 28.4898 13.2428 27.6396 13.7965C28.4645 13.6996 29.264 13.4504 30 13.1043C29.4417 13.9903 28.7437 14.7794 27.9442 15.4162Z" fill="#F5F5F5"/>
</svg>
